PathFileType	4	(X/Y/Z)	marker_full_rot.trc																																																				
DataRate	CameraRate	NumFrames	NumMarkers	Units	OrigDataRate	OrigDataStartFrame	OrigNumFrames																																																
512	512	10	18	m	512	47	124																																																
Frame#	Time	XIPH			STER			CLAV_SC			CLAV_AC			SCAP_CP			SCAP_AA			SCAP_TS			SCAP_IA			DELT			ARMl			EPICl			EPICm			LARM_ant			LARM_post			LARM_elb			LARM_dist			STYLrad			STYLulna		
		X1	Y1	Z1	X2	Y2	Z2	X3	Y3	Z3	X4	Y4	Z4	X5	Y5	Z5	X6	Y6	Z6	X7	Y7	Z7	X8	Y8	Z8	X9	Y9	Z9	X10	Y10	Z10	X11	Y11	Z11	X12	Y12	Z12	X13	Y13	Z13	X14	Y14	Z14	X15	Y15	Z15	X16	Y16	Z16	X17	Y17	Z17	X18	Y18	Z18
																																																							
47	0.089756097560976	0.774930847167969	-0.374447113037109	0.544686401367188	0.77070703125	-0.343749450683594	0.692148315429687	0.751405212402344	-0.330008636474609	0.711036865234375	0.571031860351563	-0.26070361328125	0.690521118164063	0.6304638671875	-0.299675109863281	0.672569213867187	0.55689453125	-0.226267684936523	0.68161572265625	0.692465454101562	-0.14882112121582	0.712648986816406	0.677323303222656	-0.122149314880371	0.5761630859375	0.517677734375	-0.207153274536133	0.48311865234375	0.513167114257812	-0.201201263427734	0.445090454101563	0.516519897460938	-0.16639762878418	0.365819732666016	0.578235656738281	-0.170854049682617	0.350492645263672	0.533088989257813	-0.225720703125	0.289899139404297	0.487585662841797	-0.163508483886719	0.288546112060547	0.530878112792969	-0.148352890014648	0.301900970458984	0.459932464599609	-0.217793960571289	0.219103576660156	0.435427978515625	-0.230509155273438	0.10634538269043	0.436516326904297	-0.177367950439453	0.112330558776856
48	0.091707317073171	0.775106384277344	-0.374524536132812	0.544803344726563	0.770861633300781	-0.343832092285156	0.692299133300781	0.751539306640625	-0.330030517578125	0.711113342285156	0.570945678710937	-0.261255310058594	0.690521850585937	0.630529541015625	-0.300004669189453	0.67255322265625	0.556585998535156	-0.226918243408203	0.681580993652344	0.692243469238281	-0.14921028137207	0.712565185546875	0.676930908203125	-0.122312194824219	0.575913635253906	0.516969909667969	-0.208275955200195	0.483090515136719	0.512423645019531	-0.202506652832031	0.445065734863281	0.515026733398438	-0.167798721313477	0.366130798339844	0.577211975097656	-0.17003125	0.351092071533203	0.533818359375	-0.225848358154297	0.289573913574219	0.486509124755859	-0.164960983276367	0.288585815429688	0.529398376464844	-0.148713684082031	0.302216186523437	0.460880706787109	-0.219336166381836	0.218377792358398	0.437923736572266	-0.231903060913086	0.105169853210449	0.436356140136719	-0.17900114440918	0.112108520507813
49	0.093658536585366	0.775326721191406	-0.374606658935547	0.544916137695313	0.770989807128906	-0.343844085693359	0.692389221191406	0.751665893554687	-0.330059692382813	0.711156005859375	0.570937561035156	-0.261978424072266	0.690452392578125	0.630611389160156	-0.300289581298828	0.672456420898438	0.556397521972656	-0.227768463134766	0.681619079589844	0.691914367675781	-0.14947265625	0.712460021972656	0.676532104492187	-0.122472145080566	0.575772521972656	0.516404296875	-0.209567535400391	0.482991394042969	0.511909454345703	-0.203884323120117	0.444810577392578	0.5139658203125	-0.169174346923828	0.365790161132812	0.576120361328125	-0.169772903442383	0.351302642822266	0.534572265625	-0.226057037353516	0.289300933837891	0.485599182128906	-0.166288024902344	0.288479736328125	0.527992065429687	-0.149248474121094	0.302471282958984	0.461863128662109	-0.220835632324219	0.217755630493164	0.440141876220703	-0.233194320678711	0.10415404510498	0.436310668945313	-0.180381118774414	0.111784851074219
50	0.095609756097561	0.775566955566406	-0.374579071044922	0.5449873046875	0.77115087890625	-0.343847747802734	0.6923974609375	0.75183056640625	-0.330128479003906	0.711207458496094	0.570890625	-0.262750701904297	0.69047412109375	0.630742431640625	-0.300728240966797	0.67234130859375	0.556029357910156	-0.228727722167969	0.681483337402344	0.691504516601563	-0.149780349731445	0.712416198730469	0.676154724121094	-0.122556503295898	0.575687072753906	0.515905578613281	-0.210955596923828	0.482805389404297	0.511406860351562	-0.205449462890625	0.444745697021484	0.513227111816406	-0.170259521484375	0.365722625732422	0.575320251464844	-0.169594055175781	0.351567718505859	0.535410034179687	-0.226404983520508	0.289017486572266	0.484971771240234	-0.167994979858398	0.288405731201172	0.526837036132813	-0.149909973144531	0.302639465332031	0.462790924072266	-0.222484039306641	0.217267608642578	0.441818664550781	-0.234830322265625	0.103393745422363	0.436731475830078	-0.182109466552734	0.111348640441895
51	0.097560975609756	0.775813293457031	-0.374633972167969	0.545088623046875	0.771356201171875	-0.34391552734375	0.692420959472656	0.751983276367188	-0.330191162109375	0.711236450195313	0.570716857910156	-0.263766754150391	0.690427978515625	0.630931762695312	-0.301208099365234	0.672172790527344	0.555456298828125	-0.229608108520508	0.681541687011719	0.691091857910156	-0.150164916992188	0.712446044921875	0.675739379882813	-0.122584953308105	0.575632629394531	0.515513793945313	-0.212431457519531	0.482521545410156	0.511088317871094	-0.206979156494141	0.444469268798828	0.512505920410156	-0.171763885498047	0.365737426757812	0.574335754394531	-0.170211227416992	0.351344573974609	0.536280944824219	-0.226866729736328	0.288793090820312	0.484613586425781	-0.169732986450195	0.288024658203125	0.526036254882812	-0.150675689697266	0.302603210449219	0.463742736816406	-0.22420686340332	0.216772415161133	0.443316131591797	-0.236466400146484	0.102542282104492	0.437412078857422	-0.184065216064453	0.110922546386719
52	0.099512195121951	0.776068298339844	-0.374716217041016	0.545174011230469	0.771590393066406	-0.343972686767578	0.692463745117188	0.752152038574219	-0.330228302001953	0.711221252441406	0.570591796875	-0.264823059082031	0.690359008789063	0.631215270996094	-0.301588562011719	0.671868530273438	0.555092895507813	-0.230775787353516	0.681734741210937	0.690740051269531	-0.150535232543945	0.712460815429688	0.675088989257812	-0.122646049499512	0.57557177734375	0.515249877929687	-0.213962875366211	0.482171661376953	0.510880706787109	-0.208548263549805	0.444116577148438	0.512042236328125	-0.173156280517578	0.365398101806641	0.573996276855469	-0.170108688354492	0.351646606445312	0.537091247558594	-0.227570877075195	0.288565673828125	0.484313049316406	-0.171203277587891	0.287829040527344	0.525375122070313	-0.151789306640625	0.302539184570312	0.464707977294922	-0.226098098754883	0.216352645874023	0.444568084716797	-0.238450149536133	0.101900817871094	0.438414520263672	-0.186071304321289	0.110313949584961
53	0.101463414634146	0.776308776855469	-0.374729095458984	0.54523388671875	0.771753479003906	-0.343931396484375	0.692431030273438	0.752313049316406	-0.33028369140625	0.711174621582031	0.570546081542969	-0.265904907226562	0.690366760253906	0.631501770019531	-0.302020965576172	0.671593078613281	0.554606262207031	-0.232008926391602	0.681817321777344	0.690324096679688	-0.150949234008789	0.712453369140625	0.674538879394531	-0.122996391296387	0.575423095703125	0.5149951171875	-0.215484481811523	0.481804656982422	0.510794616699219	-0.210086944580078	0.443724212646484	0.511665985107422	-0.174611557006836	0.364969360351562	0.573671325683594	-0.170750091552734	0.351648040771484	0.537822204589844	-0.228718963623047	0.288338989257812	0.484342651367188	-0.173099685668945	0.287411743164062	0.525012268066406	-0.153134841918945	0.302288330078125	0.465587310791016	-0.228038009643555	0.215878402709961	0.445866027832031	-0.240596817016602	0.101371040344238	0.439516143798828	-0.188255233764648	0.109537109375
54	0.103414634146341	0.776579833984375	-0.374657470703125	0.54524560546875	0.771935180664063	-0.343906707763672	0.692310729980469	0.752470336914062	-0.330424133300781	0.711120727539063	0.570436340332031	-0.266966094970703	0.690371276855469	0.631757934570312	-0.3024326171875	0.671290710449219	0.554284301757813	-0.233182723999023	0.682078918457031	0.689791259765625	-0.151346740722656	0.712464599609375	0.673972106933594	-0.122834648132324	0.575730163574219	0.514920288085937	-0.21705842590332	0.481408172607422	0.511005889892578	-0.211705917358398	0.443287506103516	0.511613586425781	-0.176777053833008	0.364649993896484	0.573426208496094	-0.171802719116211	0.351494506835937	0.538571716308594	-0.230125610351562	0.288115356445312	0.484434265136719	-0.175014999389648	0.287059509277344	0.524934020996094	-0.154671508789062	0.301947021484375	0.46633154296875	-0.230258285522461	0.215411727905273	0.447099273681641	-0.243035202026367	0.100788475036621	0.441018676757813	-0.190733444213867	0.108930198669434
55	0.105365853658537	0.77680615234375	-0.374601135253906	0.545269165039062	0.772096557617187	-0.343842010498047	0.692259338378906	0.752631530761719	-0.330422637939453	0.7110283203125	0.570385498046875	-0.268037750244141	0.690384948730469	0.632060607910156	-0.3028203125	0.671056640625	0.553828125	-0.234358276367188	0.682427856445313	0.689368103027344	-0.151778137207031	0.712485168457031	0.673251525878906	-0.123197059631348	0.575327880859375	0.514940856933594	-0.218671768188477	0.481018737792969	0.511125366210938	-0.213473876953125	0.442829956054688	0.511656890869141	-0.178747283935547	0.36449609375	0.573369262695312	-0.173197708129883	0.351311492919922	0.539293334960938	-0.231882369995117	0.287936492919922	0.484908325195313	-0.177650726318359	0.286435577392578	0.525034973144531	-0.156748733520508	0.301526000976562	0.467306274414063	-0.232604156494141	0.214848754882812	0.448360534667969	-0.245776062011719	0.100280128479004	0.442546783447266	-0.193379806518555	0.108101234436035
56	0.107317073170732	0.7770302734375	-0.374606201171875	0.545288269042969	0.772231201171875	-0.343723815917969	0.692210205078125	0.752789611816406	-0.330432647705078	0.710947448730469	0.570140014648438	-0.269052429199219	0.690687316894531	0.632296325683594	-0.303134002685547	0.670841186523438	0.553325073242188	-0.235509719848633	0.682842102050781	0.689013916015625	-0.152101196289063	0.712532104492188	0.672709045410156	-0.123035957336426	0.575622314453125	0.514943969726563	-0.220393264770508	0.480585144042969	0.511146575927734	-0.215385787963867	0.442410552978516	0.511823120117188	-0.180944763183594	0.363719116210937	0.57366650390625	-0.174882720947266	0.351119476318359	0.54002734375	-0.234029815673828	0.287761871337891	0.485484497070313	-0.179982177734375	0.285845245361328	0.525392822265625	-0.159119415283203	0.301095855712891	0.468064117431641	-0.235507080078125	0.214409103393555	0.449501739501953	-0.249072647094727	0.0998837890625	0.444156188964844	-0.19658039855957	0.1073896484375
